<?xml version="1.0" encoding="UTF-8" standalone="no"?>
<svg
   version="1.0"
   width="1080.000000pt"
   height="1080.000000pt"
   viewBox="0 0 1080.000000 1080.000000"
   preserveAspectRatio="xMidYMid meet"
   id="svg11"
   sodipodi:docname="logo.svg"
   inkscape:version="1.4.2 (f4327f4, 2025-05-13)"
   xmlns:inkscape="http://www.inkscape.org/namespaces/inkscape"
   xmlns:sodipodi="http://sodipodi.sourceforge.net/DTD/sodipodi-0.dtd"
   xmlns="http://www.w3.org/2000/svg"
   xmlns:svg="http://www.w3.org/2000/svg">
  <defs
     id="defs11" />
  <sodipodi:namedview
     id="namedview11"
     pagecolor="#ffffff"
     bordercolor="#111111"
     borderopacity="1"
     inkscape:showpageshadow="0"
     inkscape:pageopacity="0"
     inkscape:pagecheckerboard="1"
     inkscape:deskcolor="#d1d1d1"
     inkscape:document-units="pt"
     inkscape:zoom="0.26840278"
     inkscape:cx="-85.692109"
     inkscape:cy="732.10867"
     inkscape:window-width="1920"
     inkscape:window-height="991"
     inkscape:window-x="-9"
     inkscape:window-y="-9"
     inkscape:window-maximized="1"
     inkscape:current-layer="g11" />
  <g
     transform="translate(0.000000,1080.000000) scale(0.100000,-0.100000)"
     fill="#000000"
     stroke="none"
     id="g11">
    <path
       d="M3434 9838 c-27 -24 -76 -71 -110 -105 -56 -59 -63 -63 -104 -63 -25 0 -69 9 -99 20 -61 24 -91 19 -91 -14 0 -29 21 -47 95 -80 46 -20 77 -45 128 -102 61 -65 70 -81 77 -127 8 -56 28 -108 64 -166 25 -40 51 -106 91 -231 28 -89 163 -366 283 -584 40 -71 72 -132 72 -136 0 -4 -51 -33 -114 -63 -216 -106 -310 -242 -372 -536 -62 -302 -35 -542 81 -722 24 -38 54 -88 66 -111 12 -23 36 -65 55 -92 l33 -51 -11 -85 -11 -85 -122 -117 c-84 -80 -142 -147 -188 -215 -108 -159 -138 -194 -212 -250 -83 -62 -149 -133 -211 -224 -53 -79 -143 -166 -327 -317 -252 -206 -478 -362 -615 -424 -144 -66 -320 -174 -427 -263 -27 -23 -79 -56 -115 -74 -61 -31 -164 -103 -176 -123 -12 -19 28 -45 75 -51 61 -7 133 10 236 56 124 55 163 62 259 48 45 -7 102 -19 128 -28 45 -14 50 -13 88 8 32 18 44 33 60 76 11 30 20 65 20 78 0 30 64 95 129 132 26 14 75 43 111 63 36 21 128 65 205 100 194 86 196 87 289 160 114 90 248 212 401 366 96 96 144 137 185 156 30 14 95 45 145 68 104 49 261 154 425 284 63 51 167 132 230 181 138 108 200 169 252 252 21 33 46 64 56 68 9 4 61 22 115 41 110 37 226 100 332 178 39 29 122 81 185 116 63 35 157 90 208 122 51 32 138 82 194 110 125 62 187 107 298 213 95 92 139 123 284 205 56 31 166 94 246 140 201 115 271 146 428 186 116 30 166 50 339 136 212 105 239 124 340 244 45 55 64 114 43 139 -8 10 -31 15 -72 15 -46 0 -90 -11 -200 -52 -138 -50 -145 -51 -233 -48 -183 7 -193 6 -214 -15 -11 -11 -33 -54 -48 -95 l-28 -75 -84 -42 c-77 -38 -149 -63 -291 -99 -77 -20 -245 -72 -309 -97 -130 -50 -386 -210 -523 -328 -106 -92 -140 -111 -288 -159 -346 -114 -574 -180 -623 -180 -15 0 -53 14 -84 31 -67 38 -146 48 -224 28 -91 -22 -127 -9 -180 64 -41 56 -37 76 57 266 l77 154 45 -52 c50 -58 141 -131 196 -157 31 -15 36 -22 36 -51 0 -78 59 -123 162 -123 45 0 54 4 83 35 21 21 37 53 45 85 11 44 17 53 49 66 87 36 135 113 182 290 30 115 30 118 14 163 -10 25 -20 78 -24 116 -9 80 -17 105 -37 105 -7 0 -63 45 -124 100 -69 61 -120 100 -133 100 -12 0 -37 -9 -55 -20 -18 -11 -37 -20 -43 -20 -16 0 222 233 276 270 28 18 68 48 90 66 22 17 81 57 132 88 50 31 131 93 180 137 48 45 120 102 158 127 39 24 88 56 109 71 23 15 66 31 105 38 36 6 99 21 140 32 41 12 103 21 138 21 47 0 63 3 63 14 0 10 -21 17 -72 24 l-73 9 118 2 c97 1 117 4 117 16 0 12 -15 15 -79 15 -94 0 -143 9 -138 24 3 8 42 10 125 7 107 -3 122 -1 122 13 0 19 -15 22 -153 35 -60 5 -112 12 -115 15 -16 16 24 28 112 33 90 6 118 14 101 31 -12 12 -248 1 -299 -14 -27 -8 -61 -14 -74 -14 -22 0 -23 3 -16 28 11 38 11 96 0 102 -5 3 -35 -42 -66 -100 -97 -183 -78 -163 -255 -252 -88 -44 -193 -100 -232 -124 -40 -24 -112 -62 -159 -84 -85 -39 -93 -46 -328 -283 -249 -251 -408 -397 -432 -397 -8 0 -37 30 -64 68 -27 37 -73 88 -103 114 -45 38 -64 67 -110 160 -30 62 -58 129 -62 148 -4 19 -20 77 -35 128 -24 77 -38 104 -85 162 -70 87 -170 237 -180 270 -4 14 -26 54 -48 90 l-39 65 5 85 c5 82 17 152 39 215 23 69 23 75 -9 75 -20 0 -45 -13 -79 -42z"
       id="path1"
       style="fill:#920d0c;fill-opacity:1" />
    <path
       d="M4800 6461 c-177 -37 -461 -336 -715 -751 -197 -322 -431 -807 -601 -1245 -103 -264 -95 -253 -189 -266 -38 -5 -193 -18 -344 -28 -282 -19 -316 -27 -273 -60 13 -10 46 -12 152 -7 74 4 164 11 200 15 36 5 118 12 182 16 106 6 119 5 124 -10 4 -10 -16 -92 -46 -189 -113 -367 -193 -728 -174 -788 6 -21 32 -23 55 -5 35 27 51 72 93 263 90 401 158 649 195 710 16 27 27 32 73 38 65 7 372 30 689 51 129 8 244 17 255 19 45 9 445 28 514 24 72 -3 75 -4 90 -33 17 -33 19 -182 10 -662 -4 -229 -3 -264 11 -278 25 -26 47 -8 58 48 6 29 18 201 26 382 23 518 24 525 57 552 7 6 25 14 41 18 49 13 28 45 -29 45 -21 0 -24 5 -24 38 0 20 0 278 0 572 0 674 -16 922 -76 1160 -73 287 -187 407 -354 371z m101 -97 c25 -24 59 -84 100 -179 13 -30 28 -102 59 -285 28 -162 42 -459 47 -985 4 -461 3 -553 -9 -568 -15 -20 -15 -20 -538 -47 -118 -6 -235 -13 -260 -16 -74 -7 -618 -34 -692 -34 -52 0 -68 3 -68 14 0 14 132 364 164 438 8 18 38 87 66 153 28 66 71 162 96 212 24 51 44 95 44 98 0 7 164 335 210 420 191 355 470 715 612 789 68 35 125 32 169 -10z"
       id="path2" />
    <path
       d="M5715 5903 c-45 -23 -65 -43 -101 -99 -84 -131 -142 -355 -191 -739 -24 -192 -25 -800 -1 -902 34 -147 103 -250 181 -271 97 -27 194 27 277 152 39 60 46 66 55 50 5 -11 28 -38 50 -61 48 -49 131 -78 192 -68 131 23 271 88 370 172 59 50 83 63 83 45 0 -15 -33 -58 -93 -119 -62 -64 -70 -93 -24 -93 22 0 55 21 133 85 l31 26 21 -23 c11 -13 39 -44 62 -70 54 -61 93 -75 149 -52 70 28 174 169 197 268 11 45 -9 25 -52 -52 -56 -100 -82 -130 -121 -141 -55 -15 -80 2 -144 98 -16 25 -29 52 -29 62 0 14 36 65 113 159 31 38 58 92 53 105 -15 39 -74 5 -141 -80 -25 -33 -54 -60 -63 -60 -11 0 -25 22 -43 65 -32 78 -67 106 -96 77 -17 -17 -17 -21 4 -100 11 -45 23 -88 25 -96 5 -23 -201 -142 -321 -185 -117 -42 -183 -32 -235 37 -21 27 -26 45 -26 89 0 71 14 85 61 60 79 -40 184 -9 236 69 35 52 26 79 -36 112 -61 34 -128 35 -206 6 -103 -39 -159 -108 -171 -213 -8 -63 -39 -114 -121 -199 -84 -87 -159 -103 -199 -41 -29 43 -64 162 -70 236 l-7 74 58 44 c227 175 400 472 456 780 45 253 4 566 -95 705 -64 91 -151 126 -221 88z m125 -56 c53 -41 106 -203 119 -362 9 -114 0 -298 -18 -387 -57 -267 -193 -515 -385 -697 l-36 -35 0 165 c0 300 37 681 92 954 60 299 142 429 228 362z m390 -1497 c0 -52 -81 -88 -123 -55 -10 7 -17 21 -15 31 4 23 65 54 105 54 30 0 33 -3 33 -30z"
       id="path3" />
    <path
       d="M5971 3485 c-58 -18 -112 -78 -142 -157 -32 -87 -33 -255 -1 -338 53 -136 157 -192 300 -164 44 9 106 66 133 120 18 38 19 48 8 55 -25 16 -38 9 -58 -30 -41 -80 -121 -115 -208 -92 -94 26 -137 125 -131 305 3 94 7 119 28 160 31 61 95 106 152 106 76 0 160 -66 174 -138 5 -25 12 -32 30 -32 24 0 24 1 24 105 l0 105 -25 0 c-21 0 -25 -5 -25 -28 0 -41 -9 -45 -36 -13 -40 48 -134 64 -223 36z"
       id="path4" />
    <path
       d="M5425 3478 c-15 -45 -190 -571 -201 -605 l-13 -43 32 0 c32 0 33 1 63 93 l30 92 136 3 135 3 21 -58 c11 -32 25 -75 32 -95 10 -33 16 -38 41 -38 17 0 29 5 29 13 0 8 -47 155 -105 328 l-104 314 -46 3 c-30 2 -47 -1 -50 -10z m110 -228 c25 -79 46 -150 47 -159 3 -14 -11 -16 -106 -13 -60 1 -111 4 -113 5 -2 3 84 279 102 327 6 13 7 13 16 -1 5 -9 29 -81 54 -159z"
       id="path5" />
    <path
       d="M6574 3477 c-9 -23 -214 -640 -214 -643 0 -2 13 -4 30 -4 33 0 44 19 77 125 l18 60 139 0 139 0 14 -50 c8 -27 21 -69 30 -92 14 -38 19 -43 48 -43 l32 0 -110 330 -109 330 -44 0 c-27 0 -47 -5 -50 -13z m111 -232 c30 -88 52 -161 50 -164 -9 -9 -216 -8 -221 1 -8 13 98 329 109 325 5 -1 33 -74 62 -162z"
       id="path6" />
    <path
       d="M6990 3160 l0 -332 148 4 148 3 48 35 c77 56 116 152 116 290 0 139 -45 243 -128 296 -45 28 -52 29 -189 32 l-143 4 0 -332z m262 268 c49 -14 103 -73 120 -130 7 -24 13 -91 13 -149 0 -98 -3 -111 -30 -165 -43 -82 -73 -98 -202 -102 l-103 -4 0 281 0 281 81 0 c45 0 99 -5 121 -12z"
       id="path7" />
    <path
       d="M7560 3160 l0 -330 210 0 210 0 0 25 0 25 -177 2 -178 3 0 125 0 125 128 3 c104 2 127 5 127 17 0 8 1 18 3 23 1 4 -56 9 -128 12 l-130 5 0 120 0 120 178 3 177 2 0 25 0 25 -210 0 -210 0 0 -330z"
       id="path8" />
    <path
       d="M8140 3159 l0 -330 28 3 27 3 5 270 c6 307 -1 301 76 70 40 -121 48 -135 73 -135 13 0 30 38 72 160 29 88 57 160 61 160 5 0 8 -119 8 -265 l0 -265 35 0 35 0 0 330 -1 330 -44 0 -44 0 -21 -57 c-12 -32 -32 -89 -45 -128 -41 -119 -50 -141 -60 -144 -5 -1 -24 39 -42 91 -18 51 -44 126 -59 166 l-26 72 -39 0 -39 0 0 -331z"
       id="path9" />
    <path
       d="M8780 3466 c0 -23 4 -25 53 -28 l52 -3 3 -277 2 -278 -55 0 c-52 0 -55 -1 -55 -25 l0 -25 140 0 140 0 0 25 c0 24 -3 25 -55 25 l-55 0 0 280 0 280 55 0 c52 0 55 1 55 25 l0 25 -140 0 -140 0 0 -24z"
       id="path10" />
    <path
       d="M9436 3448 c-8 -24 -56 -164 -105 -313 -49 -148 -93 -278 -96 -287 -6 -15 -1 -18 27 -18 l34 0 31 93 30 92 133 3 c100 2 136 -1 142 -10 4 -7 19 -50 33 -95 25 -82 26 -83 59 -83 l34 0 -18 58 c-10 31 -59 179 -109 327 -50 149 -91 271 -91 273 0 1 -20 2 -44 2 -43 0 -45 -1 -60 -42z m74 -50 c0 -7 22 -80 49 -163 27 -82 45 -152 40 -155 -9 -6 -209 -3 -215 3 -9 9 101 327 113 327 7 0 13 -6 13 -12z"
       id="path11" />
  </g>
</svg>
