<?xml version="1.0" encoding="UTF-8" standalone="no"?>
<!-- Created with Inkscape (http://www.inkscape.org/) -->

<svg
   width="302.90036mm"
   height="249.09706mm"
   viewBox="0 0 302.90036 249.09706"
   version="1.1"
   id="svg1"
   xml:space="preserve"
   inkscape:export-filename="while-logo-bold.svg"
   inkscape:export-xdpi="96"
   inkscape:export-ydpi="96"
   xmlns:inkscape="http://www.inkscape.org/namespaces/inkscape"
   xmlns:sodipodi="http://sodipodi.sourceforge.net/DTD/sodipodi-0.dtd"
   xmlns="http://www.w3.org/2000/svg"
   xmlns:svg="http://www.w3.org/2000/svg"><sodipodi:namedview
     id="namedview1"
     pagecolor="#505050"
     bordercolor="#eeeeee"
     borderopacity="1"
     inkscape:showpageshadow="0"
     inkscape:pageopacity="0"
     inkscape:pagecheckerboard="0"
     inkscape:deskcolor="#505050"
     inkscape:document-units="mm"
     inkscape:zoom="0.43402052"
     inkscape:cx="-142.85039"
     inkscape:cy="798.34936"
     inkscape:window-width="1896"
     inkscape:window-height="1024"
     inkscape:window-x="0"
     inkscape:window-y="0"
     inkscape:window-maximized="1"
     inkscape:current-layer="g11"
     inkscape:export-bgcolor="#ffffff00"><inkscape:page
       x="0"
       y="0"
       width="302.90036"
       height="249.09706"
       id="page2"
       margin="0"
       bleed="0" /></sodipodi:namedview><defs
     id="defs1" /><g
     inkscape:label="Layer 1"
     inkscape:groupmode="layer"
     id="layer1"
     transform="translate(46.146021,-23.882724)"><g
       transform="matrix(0.03527778,0,0,-0.03527778,-87.486223,372.42719)"
       fill="#000000"
       stroke="none"
       id="g11"><path
         d="m 3434,9838 c -27,-24 -76,-71 -110,-105 -56,-59 -63,-63 -104,-63 -25,0 -69,9 -99,20 -61,24 -91,19 -91,-14 0,-29 21,-47 95,-80 46,-20 77,-45 128,-102 61,-65 70,-81 77,-127 8,-56 28,-108 64,-166 25,-40 51,-106 91,-231 28,-89 163,-366 283,-584 40,-71 72,-132 72,-136 0,-4 -51,-33 -114,-63 -216,-106 -310,-242 -372,-536 -62,-302 -35,-542 81,-722 24,-38 54,-88 66,-111 12,-23 36,-65 55,-92 l 33,-51 -11,-85 -11,-85 -122,-117 c -84,-80 -142,-147 -188,-215 -108,-159 -138,-194 -212,-250 -83,-62 -149,-133 -211,-224 -53,-79 -143,-166 -327,-317 -252,-206 -478,-362 -615,-424 -144,-66 -320,-174 -427,-263 -27,-23 -79,-56 -115,-74 -61,-31 -164,-103 -176,-123 -12,-19 28,-45 75,-51 61,-7 133,10 236,56 124,55 163,62 259,48 45,-7 102,-19 128,-28 45,-14 50,-13 88,8 32,18 44,33 60,76 11,30 20,65 20,78 0,30 64,95 129,132 26,14 75,43 111,63 36,21 128,65 205,100 194,86 196,87 289,160 114,90 248,212 401,366 96,96 144,137 185,156 30,14 95,45 145,68 104,49 261,154 425,284 63,51 167,132 230,181 138,108 200,169 252,252 21,33 46,64 56,68 9,4 61,22 115,41 110,37 226,100 332,178 39,29 122,81 185,116 63,35 157,90 208,122 51,32 138,82 194,110 125,62 187,107 298,213 95,92 139,123 284,205 56,31 166,94 246,140 201,115 271,146 428,186 116,30 166,50 339,136 212,105 239,124 340,244 45,55 64,114 43,139 -8,10 -31,15 -72,15 -46,0 -90,-11 -200,-52 -138,-50 -145,-51 -233,-48 -183,7 -193,6 -214,-15 -11,-11 -33,-54 -48,-95 l -28,-75 -84,-42 c -77,-38 -149,-63 -291,-99 -77,-20 -245,-72 -309,-97 -130,-50 -386,-210 -523,-328 -106,-92 -140,-111 -288,-159 -346,-114 -574,-180 -623,-180 -15,0 -53,14 -84,31 -67,38 -146,48 -224,28 -91,-22 -127,-9 -180,64 -41,56 -37,76 57,266 l 77,154 45,-52 c 50,-58 141,-131 196,-157 31,-15 36,-22 36,-51 0,-78 59,-123 162,-123 45,0 54,4 83,35 21,21 37,53 45,85 11,44 17,53 49,66 87,36 135,113 182,290 30,115 30,118 14,163 -10,25 -20,78 -24,116 -9,80 -17,105 -37,105 -7,0 -63,45 -124,100 -69,61 -120,100 -133,100 -12,0 -37,-9 -55,-20 -18,-11 -37,-20 -43,-20 -16,0 222,233 276,270 28,18 68,48 90,66 22,17 81,57 132,88 50,31 131,93 180,137 48,45 120,102 158,127 39,24 88,56 109,71 23,15 66,31 105,38 36,6 99,21 140,32 41,12 103,21 138,21 47,0 63,3 63,14 0,10 -21,17 -72,24 l -73,9 118,2 c 97,1 117,4 117,16 0,12 -15,15 -79,15 -94,0 -143,9 -138,24 3,8 42,10 125,7 107,-3 122,-1 122,13 0,19 -15,22 -153,35 -60,5 -112,12 -115,15 -16,16 24,28 112,33 90,6 118,14 101,31 -12,12 -248,1 -299,-14 -27,-8 -61,-14 -74,-14 -22,0 -23,3 -16,28 11,38 11,96 0,102 -5,3 -35,-42 -66,-100 -97,-183 -78,-163 -255,-252 -88,-44 -193,-100 -232,-124 -40,-24 -112,-62 -159,-84 -85,-39 -93,-46 -328,-283 -249,-251 -408,-397 -432,-397 -8,0 -37,30 -64,68 -27,37 -73,88 -103,114 -45,38 -64,67 -110,160 -30,62 -58,129 -62,148 -4,19 -20,77 -35,128 -24,77 -38,104 -85,162 -70,87 -170,237 -180,270 -4,14 -26,54 -48,90 l -39,65 5,85 c 5,82 17,152 39,215 23,69 23,75 -9,75 -20,0 -45,-13 -79,-42 z"
         id="path1"
         style="fill:#a4161a;fill-opacity:1;stroke-width:0.992126;stroke-dasharray:none" /><path
         id="path2"
         style="fill:#ffffff;stroke:#ffffff;stroke-width:111.543;stroke-dasharray:none;stroke-dashoffset:0;stroke-opacity:1"
         d="m 4860.1634,6467.1633 c -19.2422,0.3965 -39.2862,-1.667 -60.1612,-6.167 -177,-37 -461.0048,-335.996 -715.0048,-750.996 -197,-322 -430.9961,-807 -600.9961,-1245 -103,-264 -94.9941,-253.0009 -188.9941,-266.0009 -38,-5 -193.0039,-17.9932 -344.0039,-27.9932 -282,-19 -316.0029,-27 -273.0029,-60 13,-10 46.0068,-12.0019 152.0068,-7.0019 74,4 163.9952,11 199.9952,15 36,5 117.9921,11.9961 181.9921,15.9961 106,6 118.999,4.9951 123.999,-10.0049 4,-10 -15.996,-91.9942 -45.996,-188.9942 -113,-367 -180.7116,-760.0888 -183.5132,-796.0055 -29.557,-306.0733 -1.8431,-308.1275 88.8865,-17.6919 26.5292,55.6204 26.6257,92.7024 68.6257,283.7024 90,401 158,648.995 195,709.995 16,27 27.0078,31.9981 73.0078,37.9981 65,7 371.9892,30.0058 688.9892,51.0058 129,8 244,16.9991 255,18.9991 45,9 445.0136,27.9941 514.0136,23.9941 72,-3 75,-4.0029 90,-33.0029 17,-33 18.9902,-181.9922 9.9902,-661.9922 -4,-229 -4.5264,-496.1592 9.4736,-510.1592 25,-26 48.5352,224.1495 59.5352,280.1495 6,29 18.001,201.0019 26.001,382.0019 23,518 23.9971,525.0117 56.9971,552.0117 7,6 25.0009,13.9883 41.0009,17.9883 49,13 27.9961,45 -29.0039,45 -21,0 -23.9941,4.998 -23.9941,37.998 v 572.0068 c 0,674 -16.0107,921.995 -76.0107,1159.995 -63.875,251.125 -159.1377,374.3926 -293.833,377.168 z m -45.3955,-69.126 c 32.6206,0.8767 61.4853,-10.4179 86.2353,-34.0429 25,-24 58.9902,-83.9893 99.9902,-178.9893 13,-30 28.0039,-102 59.0039,-285 28,-162 42.0069,-459.0048 47.0069,-985.0048 4,-461 2.9912,-552.9931 -9.0088,-567.9931 -15,-20 -14.9931,-20.0069 -537.9931,-47.0069 -118,-6 -234.9951,-12.9961 -259.9951,-15.9961 -74,-7 -618.0068,-33.999 -692.0068,-33.999 -52,0 -67.9981,2.9893 -67.9981,13.9893 0,14 132.0039,364.0029 164.0039,438.0029 8,18 37.9912,87.0029 65.9912,153.0029 28,66 71.0059,162.0068 96.0059,212.0068 24,51 44.0039,94.9981 44.0039,97.9981 0,7 164,334.9999 210,419.9999 191,355 469.997,714.9941 611.997,788.9941 29.75,15.3125 57.3921,23.3562 82.7637,24.0381 z m 955.2978,-479.956 c -19,-0.6406 -37.5635,-5.5879 -55.0635,-15.0879 -45,-23 -65.001,-42.9941 -101.001,-98.9941 -84,-131 -142.001,-354.999 -191.001,-738.999 -24,-192 -24.996,-800.0068 -0.996,-902.0068 34,-147 102.996,-249.9961 180.996,-270.9961 97,-27 194.002,27.0069 277.002,152.0069 39,60 46.0049,65.9951 55.0049,49.9951 5,-11 27.9951,-37.9961 49.9951,-60.9961 48,-49 130.997,-77.9981 191.997,-67.9981 131,23 271.0049,88.002 370.0049,172.002 59,50 82.998,63 82.998,45 0,-15 -33.0029,-58.0039 -93.0029,-119.0039 -62,-64 -128.0344,-163.2622 -82.0344,-163.2622 22,0 113.0334,91.2641 191.0334,155.2641 l 30.9961,26.001 21.0059,-23.0127 c 11,-13 39.0068,-43.9902 62.0068,-69.9902 54,-61 92.9892,-75.002 148.9892,-52.002 70,28 174.0069,168.9932 197.0069,267.9932 11,45 -9.002,25.0127 -52.002,-51.9873 -56,-100 -81.9961,-130.0059 -120.9961,-141.0059 -55,-15 -80.0087,1.9981 -144.0087,97.9981 -16,25 -28.9893,52.0068 -28.9893,62.0068 0,14 35.998,64.9941 112.998,158.9941 31,38 57.9981,92 52.9981,105 -15,39 -74.0059,5.0049 -141.0059,-79.9951 -25,-33 -54.0029,-60 -63.0029,-60 -11,0 -24.9932,21.9951 -42.9932,64.9951 -32,78 -67.0058,106.0069 -96.0058,77.0069 -17,-17 -17.001,-21.0049 3.999,-100.0049 11,-45 23.0049,-88.0059 25.0049,-96.0059 5,-23 -201.0058,-141.9951 -321.0058,-184.9951 -117,-42 -182.9903,-31.998 -234.9903,37.002 -21,27 5.5649,120.1873 -37.4562,120.3151 -311.5439,0.9254 282.3727,-29.9979 334.3727,48.0021 35,52 0.074,128.6828 -61.9262,161.6828 -61,34 -127.9864,34.9912 -205.9864,5.9912 -103,-39 -159.0058,-107.9883 -171.0058,-212.9883 -8,-63 -38.9961,-113.999 -120.9961,-198.999 -84,-87 -158.999,-103.001 -198.999,-41.001 -29,43 -64.0049,162.001 -70.0049,236.001 l -7.0019,73.9892 58.0078,44.0039 c 227,175 399.9912,472 455.9912,780 45,253 4.0048,565.9999 -94.9952,704.9999 -48,68.25 -108.9374,105.003 -165.9374,103.0811 z m 22.1044,-53.9795 c 15.7251,1.1045 31.7022,-4.5322 47.8272,-17.0947 53,-41 106.0039,-203.0068 119.0039,-362.0068 9,-114 0,-297.9971 -18.0029,-386.9971 -57,-267 -193.0049,-515.0019 -385.0049,-697.0019 l -35.9912,-34.9951 v 165 c 0,300 36.9922,680.9941 91.9922,953.9941 48.75,242.9375 112.0337,374.3154 180.1757,379.1015 z M 6181.874,4427.5163 c 141.8092,16.5643 194.4099,-50.7846 142.5772,-111.0595 -95.2316,-110.7422 -449.8305,-194.8886 -301.0381,34.3849 55.8409,77.0009 118.7311,72.0339 158.4609,76.6746 z"
         sodipodi:nodetypes="sccccccccccccccccccccccccccssscsscccccccsscscsccssccccccccccscscccccccccscscscsccccscccccccccccsscccccscssscs" /><path
         d="m 5971,3485 c -58,-18 -112,-78 -142,-157 -32,-87 -33,-255 -1,-338 53,-136 157,-192 300,-164 44,9 106,66 133,120 18,38 19,48 8,55 -25,16 -38,9 -58,-30 -41,-80 -121,-115 -208,-92 -94,26 -137,125 -131,305 3,94 7,119 28,160 31,61 95,106 152,106 76,0 160,-66 174,-138 5,-25 12,-32 30,-32 24,0 24,1 24,105 v 105 h -25 c -21,0 -25,-5 -25,-28 0,-41 -9,-45 -36,-13 -40,48 -134,64 -223,36 z"
         id="path4"
         style="fill:#ffffff;stroke:#ffffff;stroke-width:28.3465;stroke-dasharray:none;stroke-opacity:1" /><path
         d="m 5425,3478 c -15,-45 -190,-571 -201,-605 l -13,-43 h 32 c 32,0 33,1 63,93 l 30,92 136,3 135,3 21,-58 c 11,-32 25,-75 32,-95 10,-33 16,-38 41,-38 17,0 29,5 29,13 0,8 -47,155 -105,328 l -104,314 -46,3 c -30,2 -47,-1 -50,-10 z m 110,-228 c 25,-79 46,-150 47,-159 3,-14 -11,-16 -106,-13 -60,1 -111,4 -113,5 -2,3 84,279 102,327 6,13 7,13 16,-1 5,-9 29,-81 54,-159 z"
         id="path5"
         style="fill:#ffffff;stroke:#ffffff;stroke-width:28.3465;stroke-dasharray:none;stroke-opacity:1" /><path
         d="m 6574,3477 c -9,-23 -214,-640 -214,-643 0,-2 13,-4 30,-4 33,0 44,19 77,125 l 18,60 h 139 139 l 14,-50 c 8,-27 21,-69 30,-92 14,-38 19,-43 48,-43 h 32 l -110,330 -109,330 h -44 c -27,0 -47,-5 -50,-13 z m 111,-232 c 30,-88 52,-161 50,-164 -9,-9 -216,-8 -221,1 -8,13 98,329 109,325 5,-1 33,-74 62,-162 z"
         id="path6"
         style="fill:#ffffff;stroke:#ffffff;stroke-width:28.3465;stroke-dasharray:none;stroke-opacity:1" /><path
         d="m 6990,3160 v -332 l 148,4 148,3 48,35 c 77,56 116,152 116,290 0,139 -45,243 -128,296 -45,28 -52,29 -189,32 l -143,4 z m 262,268 c 49,-14 103,-73 120,-130 7,-24 13,-91 13,-149 0,-98 -3,-111 -30,-165 -43,-82 -73,-98 -202,-102 l -103,-4 v 281 281 h 81 c 45,0 99,-5 121,-12 z"
         id="path7"
         style="fill:#ffffff;stroke:#ffffff;stroke-width:28.3465;stroke-dasharray:none;stroke-opacity:1" /><path
         d="m 7560,3160 v -330 h 210 210 v 25 25 l -177,2 -178,3 v 125 125 l 128,3 c 104,2 127,5 127,17 0,8 1,18 3,23 1,4 -56,9 -128,12 l -130,5 v 120 120 l 178,3 177,2 v 25 25 h -210 -210 z"
         id="path8"
         style="fill:#ffffff;stroke:#ffffff;stroke-width:28.3465;stroke-dasharray:none;stroke-opacity:1" /><path
         d="m 8140,3159 v -330 l 28,3 27,3 5,270 c 6,307 -1,301 76,70 40,-121 48,-135 73,-135 13,0 30,38 72,160 29,88 57,160 61,160 5,0 8,-119 8,-265 v -265 h 35 35 v 330 l -1,330 h -44 -44 l -21,-57 c -12,-32 -32,-89 -45,-128 -41,-119 -50,-141 -60,-144 -5,-1 -24,39 -42,91 -18,51 -44,126 -59,166 l -26,72 h -39 -39 z"
         id="path9"
         style="fill:#ffffff;stroke:#ffffff;stroke-width:28.3465;stroke-dasharray:none;stroke-opacity:1" /><path
         d="m 8780,3466 c 0,-23 4,-25 53,-28 l 52,-3 3,-277 2,-278 h -55 c -52,0 -55,-1 -55,-25 v -25 h 140 140 v 25 c 0,24 -3,25 -55,25 h -55 v 280 280 h 55 c 52,0 55,1 55,25 v 25 h -140 -140 z"
         id="path10"
         style="fill:#ffffff;stroke:#ffffff;stroke-width:28.3465;stroke-dasharray:none;stroke-opacity:1" /><path
         d="m 9436,3448 c -8,-24 -56,-164 -105,-313 -49,-148 -93,-278 -96,-287 -6,-15 -1,-18 27,-18 h 34 l 31,93 30,92 133,3 c 100,2 136,-1 142,-10 4,-7 19,-50 33,-95 25,-82 26,-83 59,-83 h 34 l -18,58 c -10,31 -59,179 -109,327 -50,149 -91,271 -91,273 0,1 -20,2 -44,2 -43,0 -45,-1 -60,-42 z m 74,-50 c 0,-7 22,-80 49,-163 27,-82 45,-152 40,-155 -9,-6 -209,-3 -215,3 -9,9 101,327 113,327 7,0 13,-6 13,-12 z"
         id="path11"
         style="fill:#ffffff;stroke:#ffffff;stroke-width:28.3465;stroke-dasharray:none;stroke-opacity:1" /></g></g></svg>
